inDegrees=no
num_controls=7
num_derivatives=13
num_iterations=124
num_multipliers=7
num_parameters=0
num_slacks=7
num_states=26
objective=0.497132
objective_accelerations=0.042302
objective_balance=0.003562
objective_effort=0.039732
objective_height=0.405708
objective_ligament=0.005828
solver_duration=1435.449602
status=Solve_Succeeded
success=true
DataType=double
version=3
OpenSimVersion=4.5
endheader
time	/jointset/ground_pelvis/pelvis_tilt/value	/jointset/ground_pelvis/pelvis_tx/value	/jointset/ground_pelvis/pelvis_ty/value	/jointset/hip_r/hip_flexion_r/value	/jointset/hip_r/hip_adduction_r/value	/jointset/hip_r/hip_rotation_r/value	/jointset/back/lumbar_extension/value	/jointset/patellofemoral_r/patellar_flexion_r/value	/jointset/knee_r/knee_flexion_r/value	/jointset/knee_r/knee_adduction_r/value	/jointset/knee_r/knee_rotation_r/value	/jointset/ankle_r/ankle_angle_r/value	/jointset/subtalar_r/subtalar_angle_r/value	/jointset/ground_pelvis/pelvis_tilt/speed	/jointset/ground_pelvis/pelvis_tx/speed	/jointset/ground_pelvis/pelvis_ty/speed	/jointset/hip_r/hip_flexion_r/speed	/jointset/hip_r/hip_adduction_r/speed	/jointset/hip_r/hip_rotation_r/speed	/jointset/back/lumbar_extension/speed	/jointset/patellofemoral_r/patellar_flexion_r/speed	/jointset/knee_r/knee_flexion_r/speed	/jointset/knee_r/knee_adduction_r/speed	/jointset/knee_r/knee_rotation_r/speed	/jointset/ankle_r/ankle_angle_r/speed	/jointset/subtalar_r/subtalar_angle_r/speed	/forceset/tau_hip_flexion_r	/forceset/tau_hip_adduction_r	/forceset/tau_hip_rotation_r	/forceset/tau_knee_flexion_r	/forceset/tau_ankle_angle_r	/forceset/tau_subtalar_angle_r	/forceset/tau_lumbar_extension	lambda_cid13_p0	lambda_cid14_p0	lambda_cid14_p1	lambda_cid14_p2	lambda_cid14_p3	lambda_cid14_p4	lambda_cid14_p5	/jointset/ground_pelvis/pelvis_tilt/accel	/jointset/ground_pelvis/pelvis_tx/accel	/jointset/ground_pelvis/pelvis_ty/accel	/jointset/hip_r/hip_flexion_r/accel	/jointset/hip_r/hip_adduction_r/accel	/jointset/hip_r/hip_rotation_r/accel	/jointset/back/lumbar_extension/accel	/jointset/patellofemoral_r/patellar_flexion_r/accel	/jointset/knee_r/knee_flexion_r/accel	/jointset/knee_r/knee_adduction_r/accel	/jointset/knee_r/knee_rotation_r/accel	/jointset/ankle_r/ankle_angle_r/accel	/jointset/subtalar_r/subtalar_angle_r/accel	gamma_cid13_p0	gamma_cid14_p0	gamma_cid14_p1	gamma_cid14_p2	gamma_cid14_p3	gamma_cid14_p4	gamma_cid14_p5
1.5	-0.1468303767172108	0.04450120820728815	0.8506143236300877	0.7774772097285596	-0.2407603603712089	-0.1101608154273633	-0.2868660502133998	0.7257766291370892	0.7257766291370119	0.06598371709065246	0.1745249357784819	0.263138394558331	0.04183248905919094	0.3308461957464836	0.1549445423752256	0.4113767009195983	-1.755060004086135	0.03759048504177435	-0.4050130172104814	0.700074439879348	-1.960017944053033	-1.960017944053054	0.1821549456082031	-1.441961698852608e-05	-0.624302604091843	-0.114437491661259	-0.09075021174099059	-0.01859997138532786	0.01162235890454719	-0.3346865926104335	0.06382135420474216	-0.01215764148299548	0.1390287246440981	-29.85576446171719	-20.85572964951199	-5.0078013580801	-3.223745391379834	2.552386098444833	-655.2214722302325	57.23236329055944	0.1678881310016664	0.3503873944777117	-0.5478476647727958	-0.839572304610999	0.1092994112268598	-0.3412837222015434	1.337026698071866	-1.141836137426618	-1.141836137426636	0.5193721563253926	-0.02574362305116548	-0.5626799278974349	0.05444078343613915	1.432784809313346e-07	8.954848881223929e-08	-1.450840566664353e-06	7.454704476976126e-07	1.000022845750668e-07	1.933739169039427e-07	-1.049337411285007e-06
1.51	-0.1435138011882433	0.04606795807952646	0.8546998430348145	0.759886583013123	-0.2403797272768546	-0.1142284291219236	-0.2797997391262298	0.706121924098865	0.7061219240988152	0.06783227726134838	0.1745249189710468	0.2568678445240536	0.040689988668476	0.3324207122781834	0.1583802575849186	0.4056399549310137	-1.762819283692354	0.03853157579162532	-0.4084823031766666	0.7130769524674475	-1.970638308129139	-1.970638308129129	0.1875565117824249	8.618962321491351e-06	-0.6297141069885812	-0.114046719089692	-0.08447790465317871	-0.02076834127348932	0.01107784643982052	-0.3310996997353239	0.06734232744865983	-0.0130204959832325	0.133280043502085	-30.99487597118587	-19.55970365229147	-5.029293097133185	-3.364608038950237	2.120386834937817	-651.3443883072584	57.37373166339294	0.1450114657626714	0.3364091884311651	-0.5996279402826046	-0.7071870337938491	0.08581281069896265	-0.3454249584295381	1.265239776097426	-0.9794545714581866	-0.9794545714536709	0.5502653202958196	0.01609150643958431	-0.5163556312684264	0.03361642113805247	1.521635797227632e-07	9.381054729629382e-08	-1.553551705608193e-06	7.776200284635567e-07	1.058660219016342e-07	2.10583570463084e-07	-1.115507655058459e-06
1.52	-0.1401829248836572	0.04766831422470494	0.858725387004779	0.7422257472525911	-0.239989823494235	-0.1183298704610661	-0.2726067276657951	0.6863695518141294	0.6863695518141061	0.06973479638825286	0.174525085331007	0.2505459854286676	0.03955184018890095	0.3337063508702242	0.1616657969632595	0.3993816139671761	-1.769101813105229	0.03944462269486627	-0.4117785461269536	0.7254145145322842	-1.979551393355473	-1.979551393355434	0.192946736849656	2.221386233159763e-05	-0.6345644163135761	-0.1135671094332818	-0.07820559756536415	-0.0229367111616505	0.01053333397508428	-0.3275128068602135	0.07086330069257742	-0.01388335048346893	0.1275313623600744	-32.11800617475605	-18.26731291594465	-5.048846639117372	-3.50872098815029	1.678885245260873	-647.5316756627623	57.57119769951019	0.1101125430698683	0.3203522282072979	-0.6521666598233855	-0.5442222659419907	0.1036906419048562	-0.3066751190219251	1.204036593419329	-0.8003803674724945	-0.8003803674724912	0.5171039349272426	-0.02763235891114718	-0.4504412135487791	0.07220820040479002	1.599350240756127e-07	9.145937014298507e-08	-1.651345264082493e-06	7.879682310218569e-07	1.178953555317389e-07	2.085573534516685e-07	-1.16929718997732e-06
1.53	-0.136840787054886	0.04930073954098446	0.8626857838218458	0.7245096967007032	-0.2395909322174452	-0.1224635912366307	-0.2652935677768647	0.6665367426511521	0.6665367426510792	0.0716910301657431	0.1745254784856098	0.2441785050607795	0.03841895961941346	0.3346722239466424	0.1647903187524669	0.3926186941089594	-1.773859107288358	0.04033077803809804	-0.4149351740179966	0.7370979174744655	-1.986720109593952	-1.986720109593894	0.1982926347195644	4.968085400127611e-05	-0.6388335460289001	-0.1129903566197821	-0.07190480872044906	-0.02518973638421796	0.009956161056865823	-0.32408712397675	0.07451369172052125	-0.0148686312731677	0.1217811134596584	-33.21210350292404	-16.95529823213641	-5.125300359823985	-3.635576304141563	1.250309594009776	-643.9748841733964	57.70882999350417	0.08248368767832176	0.3041893077790513	-0.7001781360733813	-0.4040954270753886	0.08060573179575453	-0.3153705997165409	1.132560277717112	-0.6316018151778747	-0.6316018151750642	0.5420010589098996	0.01705322871905741	-0.4003947417408971	0.05301470195583189	1.665232105874719e-07	8.208163012497793e-08	-1.743913893307907e-06	7.75152469234536e-07	1.364756352343518e-07	1.860930239590365e-07	-1.20993222173818e-06
1.54	-0.1334904586958005	0.0509635475058564	0.86657618674288	0.706753550720469	-0.2391832738369707	-0.1266279210862198	-0.2578671602318926	0.6466409494131622	0.646640949413039	0.07370045659111114	0.1745259697102317	0.2377712842174949	0.03729236775408762	0.3353444569330813	0.1677423266817428	0.3853828347606388	-1.77712089877457	0.04119804343186604	-0.417900360931882	0.7480640457406297	-1.992148208358124	-1.992148208358048	0.2035852664249628	4.182786619226847e-05	-0.6425125113928919	-0.1123093686009516	-0.06560401987553133	-0.02744276160678345	0.009378988138643419	-0.3206614410932858	0.07816408274846556	-0.01585391206286365	0.1160308645592445	-34.27051925646091	-15.65134747225211	-5.20019922080437	-3.766068684887241	0.8228417888982741	-640.5510573177876	57.9103227546484	0.05138452507401919	0.2858494562209976	-0.7467545578441711	-0.2451217265586991	0.09991265201210561	-0.2683869235904093	1.060581658215928	-0.4522568726113398	-0.4522568726113452	0.5064507020252443	-0.0346963548068834	-0.3324083432823693	0.09305524147093744	1.736591679174321e-07	7.578045865295688e-08	-1.83744467663444e-06	7.719188658279531e-07	1.515346430657367e-07	1.731821316166678e-07	-1.253700849645268e-06
